<svg xmlns="http://www.w3.org/2000/svg" xml:space="preserve" viewBox="0 0 737 307"><path d="M143.94 218.01h-10.609V107.608h19.647v46.105c.83-1.51 1.552-2.553 2.012-3.702 4.367-10.884 12.093-17.361 24.04-17.934 12.539-.6 22.359 4.636 27.59 15.956 8.47 18.325 8.41 37.246-.077 55.54-5.996 12.925-18.138 18.653-32.224 16.318-9.558-1.584-15.456-7.87-19.146-16.488-.933-2.179-1.803-4.385-3.728-6.339v20.944zm16.881-20.368c10.679 10.005 23.535 6.91 28.21-6.966 3.185-9.453 3.028-19.07-.21-28.479-2.154-6.263-5.906-11.286-13.111-12.241-7.935-1.052-13.654 2.583-17.237 9.326-6.844 12.882-6.162 25.572 2.348 38.36"/><path fill="#fe4284" d="M555.088 130.001v-17.637h20.824v5.286c0 18.657-.066 37.314.053 55.97.026 3.97.333 8.024 1.19 11.888 2.349 10.597 9.784 16.314 20.81 16.482 11.263.173 18.951-5.46 21.483-16.24.903-3.846 1.186-7.91 1.212-11.877.12-18.657.053-37.314.053-55.971v-5.61h20.268c.197.582.49 1.045.49 1.507-.061 22.815.566 45.662-.43 68.438-1.019 23.337-14.755 36.276-38.151 37.857-15.21 1.028-29.297-1.422-39.394-14.428-6.313-8.132-8.32-17.667-8.38-27.69-.097-15.824-.028-31.65-.028-47.975"/><path d="M350.7 193v24.704h-18.24v-19.72l-.928-.376c-.57 1.356-1.103 2.728-1.714 4.066-6.674 14.616-22.267 21.86-37.735 17.648-9.063-2.467-14.853-7.898-16.212-17.428-1.462-10.247.818-19.524 10.523-24.32 7.297-3.607 15.59-5.276 23.534-7.466 4.78-1.318 9.786-1.799 14.608-2.99 5.545-1.37 6.903-4.176 5.129-9.638-2.112-6.502-10.51-10.137-18.841-8.156-8.198 1.95-11.864 6.366-13.295 16.522l-18.011-1.736c-1.758-11.933 6.034-23.835 16.507-28.15 10.312-4.25 20.91-5.314 31.699-2.402 13.24 3.574 20.66 12.737 22.007 26.024 1.104 10.894.703 21.94.97 33.418m-46.174 11.11c14.894 1.953 27.707-11.34 25.076-26.006-3.06.635-6.141 1.189-9.179 1.922-5.763 1.39-11.63 2.512-17.208 4.454-4.365 1.52-6.814 5.076-6.696 10.037.118 4.96 2.573 8.048 8.007 9.594m27.926-8.839-.127 1.48c.163-.33.326-.66.127-1.48M507.415 206.347c-6.374 8.878-15.033 13.025-25.303 13.544-6.09.308-12.366.279-18.326-.839-14.904-2.795-23.98-12.281-27.647-26.797-3.317-13.137-2.534-26.143 2.994-38.61 7.537-17 24.373-24.602 45.038-20.594 15.525 3.012 25.762 16.302 26.347 34.293.113 3.457.016 6.922.016 11.179h-55.368c-.89 14.243 6.08 24.44 16.856 25.531 13.75 1.392 19.009-2.762 21.17-17.15l18.635 1.239c.87 6.533-.992 12.363-4.412 18.204m-24.972-55.623c-13.095-5.977-26.298 2.73-26.215 15.484h34.635c-.705-6.624-2.44-11.82-8.42-15.484M432.016 142.036c-8.476 25.461-16.828 50.54-25.232 75.77H380.4L352.6 134.4h22.232l18.475 64.255 1.137.2 18.917-64.551h21.173c-.875 2.685-1.635 5.017-2.518 7.732M241.977 158.982c1.823-5.666 2.938-11.696 5.623-16.92 4.763-9.265 14.415-12.162 23.832-7.948 1.117.5 2.596 1.948 2.58 2.936-.104 6.762-.562 13.52-.918 20.51-2.142-.758-3.693-1.338-5.262-1.859-9.202-3.055-17.21-.167-20.256 8.984-2.524 7.583-3.551 15.826-4.119 23.856-.677 9.59-.16 19.263-.16 29.186H222.73v-83.362h17.687c0 8.053 0 15.828-.21 24.47-.212 4.139-.212 7.41-.212 10.681l.95.045zM86.91 198.998v18.712H66.308V107.46H86.91zM528.093 218.008h-6.656V107.563h20.489v110.445z"/><path fill="#fe4284" d="M676.13 195v22.712h-20.76V112.346h20.76z"/><path d="M99.437 186v-51.612h20.941v83.33h-20.94zM97.676 119.154c-.719-7.988 2.155-11.834 9.305-12.971 7.992-1.271 14.236 2.007 15.492 8.134 1.21 5.903-1.902 10.558-7.837 11.721-8.733 1.712-13.877-.273-16.96-6.884"/></svg>